<?xml version="1.0" encoding="UTF-8"?>
<!-- Created with Inkscape (http://www.inkscape.org/) -->
<svg width="512" height="512" version="1.1" viewBox="0 0 512 512" xml:space="preserve" xmlns="http://www.w3.org/2000/svg"><rect width="512" height="512" ry="256" fill="#fff"/><text x="62.351902" y="421.09009" fill="#f6339a" font-family="'Major Mono Display'" font-size="74.667px" style="font-variant-caps:normal;font-variant-east-asian:normal;font-variant-ligatures:normal;font-variant-numeric:normal" xml:space="preserve"><tspan x="62.351902" y="421.09009">Tracker</tspan></text><g id="_04-Profit" transform="matrix(4.6751 0 0 4.6751 106.4 56.395)" data-name="04-Profit"><path d="m61 58c0 1.6569-3.5817 3-8 3s-8-1.3431-8-3v-24h16z" fill="#ffd54f"/><path d="m56 34v26.78c2.9306-0.4452 5-1.5211 5-2.78v-24z" fill="#ffca28"/><path d="m19 58c0 1.6569-3.5817 3-8 3s-8-1.3431-8-3v-12h16z" fill="#ffd54f"/><path d="m19 46v12c0 1.26-2.07 2.34-5 2.78v-14.78z" fill="#ffca28"/><path d="m40 58c0 1.6569-3.5817 3-8 3s-8-1.3431-8-3v-18h16z" fill="#ffd54f"/><path d="m40 58c0 1.6569-3.5817 3-8 3s-8-1.3431-8-3v-18h16z" fill="#ffd54f"/><path d="m40 40v18c0 1.26-2.07 2.34-5 2.78v-20.78z" fill="#ffca28"/><path d="m19 52v6c0 1.66-3.58 3-8 3s-8-1.34-8-3v-6c0 1.66 3.58 3 8 3s8-1.34 8-3z" fill="#ffb74d"/><path d="m19 52v6c0 1.66-3.58 3-8 3s-8-1.34-8-3v-3c0 1.66 3.58 3 8 3h0.0758a2.9776 2.9776 0 0 0 2.9242-3.0009v-0.2191c2.93-0.44 5-1.52 5-2.78z" fill="#ffa726"/><path d="m40 52v6c0 1.66-3.58 3-8 3s-8-1.34-8-3v-3c0 1.66 3.58 3 8 3h0.0758a2.9776 2.9776 0 0 0 2.9242-3.0009v-0.2191c2.93-0.44 5-1.52 5-2.78z" fill="#ffca28"/><path d="m40 46v6c0 1.66-3.58 3-8 3s-8-1.34-8-3v-6c0 1.66 3.58 3 8 3s8-1.34 8-3z" fill="#ffb74d"/><path d="m40 46v6c0 1.26-2.07 2.34-5 2.78v-6c2.93-0.44 5-1.52 5-2.78z" fill="#ffa726"/><path d="m61 40v6c0 1.66-3.58 3-8 3s-8-1.34-8-3v-6c0 1.66 3.58 3 8 3s8-1.34 8-3z" fill="#ffb74d"/><path d="m61 40v6c0 1.26-2.07 2.34-5 2.78v-6c2.93-0.44 5-1.52 5-2.78z" fill="#ffa726"/><g fill="#ffb74d"><path d="m61 52v6c0 1.66-3.58 3-8 3s-8-1.34-8-3v-6c0 1.66 3.58 3 8 3s8-1.34 8-3z"/><ellipse cx="11" cy="46" rx="8" ry="3"/><ellipse cx="32" cy="40" rx="8" ry="3"/><ellipse cx="53" cy="34" rx="8" ry="3"/></g><path d="m56 3h-11a1 1 0 0 0-1 1v2a1 1 0 0 0 1 1h6l-15 15-7.1716-7.1716a4 4 0 0 0-5.6568 0l-17.172 17.172 3 3 17-17 7.1716 7.1716a4 4 0 0 0 5.6568 0l15.172-15.172v6a1 1 0 0 0 1 1h2a1 1 0 0 0 1-1v-11a2 2 0 0 0-2-2z" fill="#64b5f6"/><path d="m54.77 8.15a1.9859 1.9859 0 0 0-2.18 0.44l-15.18 15.17a2.0484 2.0484 0 0 1-2.82 0l-7.18-7.17a1.974 1.974 0 0 0-2.82 0l-17 17 1.41 1.41 17-17 7.17 7.17a4.0076 4.0076 0 0 0 5.66 0l15.17-15.17v6a1.0029 1.0029 0 0 0 1 1h1v-7a2.01 2.01 0 0 0-1.23-1.85z" fill="#42a5f5"/><path d="m61 52v6c0 1.66-3.58 3-8 3s-8-1.34-8-3v-3c0 1.66 3.58 3 8 3h0.0758a2.9776 2.9776 0 0 0 2.9242-3.0009v-0.2191c2.93-0.44 5-1.52 5-2.78z" fill="#ffa726"/><path d="m11 42c-4.4727 0-9 1.374-9 4v12c0 2.626 4.5273 4 9 4s9-1.374 9-4v-12c0-2.626-4.5273-4-9-4zm0 18c-4.5469 0-7-1.4194-7-2v-3.4a15.862 15.862 0 0 0 7 1.4 15.862 15.862 0 0 0 7-1.4v3.4c0 0.5806-2.4531 2-7 2zm0-6c-4.5469 0-7-1.4194-7-2v-3.4a15.862 15.862 0 0 0 7 1.4 15.862 15.862 0 0 0 7-1.4v3.4c0 0.5806-2.4531 2-7 2zm0-6c-4.5469 0-7-1.4194-7-2s2.4531-2 7-2 7 1.4194 7 2-2.4531 2-7 2zm21-12c-4.4727 0-9 1.374-9 4v18c0 2.626 4.5273 4 9 4s9-1.374 9-4v-18c0-2.626-4.5273-4-9-4zm0 24c-4.5469 0-7-1.4194-7-2v-3.4a15.862 15.862 0 0 0 7 1.4 15.862 15.862 0 0 0 7-1.4v3.4c0 0.5806-2.4531 2-7 2zm0-6c-4.5469 0-7-1.4194-7-2v-3.4a15.862 15.862 0 0 0 7 1.4 15.862 15.862 0 0 0 7-1.4v3.4c0 0.5806-2.4531 2-7 2zm0-6c-4.5469 0-7-1.4194-7-2v-3.4a15.862 15.862 0 0 0 7 1.4 15.862 15.862 0 0 0 7-1.4v3.4c0 0.5806-2.4531 2-7 2zm0-6c-4.5469 0-7-1.4194-7-2s2.4531-2 7-2 7 1.4194 7 2-2.4531 2-7 2zm21-12c-4.4727 0-9 1.374-9 4v24c0 2.626 4.5273 4 9 4s9-1.374 9-4v-24c0-2.626-4.5273-4-9-4zm0 2c4.5469 0 7 1.4194 7 2s-2.4531 2-7 2-7-1.4194-7-2 2.4531-2 7-2zm0 28c-4.5469 0-7-1.4194-7-2v-3.4a15.862 15.862 0 0 0 7 1.4 15.862 15.862 0 0 0 7-1.4v3.4c0 0.5806-2.4531 2-7 2zm0-6c-4.5469 0-7-1.4194-7-2v-3.4a15.862 15.862 0 0 0 7 1.4 15.862 15.862 0 0 0 7-1.4v3.4c0 0.5806-2.4531 2-7 2zm0-6c-4.5469 0-7-1.4194-7-2v-3.4a15.862 15.862 0 0 0 7 1.4 15.862 15.862 0 0 0 7-1.4v3.4c0 0.5806-2.4531 2-7 2zm0-6c-4.5469 0-7-1.4194-7-2v-3.4a15.862 15.862 0 0 0 7 1.4 15.862 15.862 0 0 0 7-1.4v3.4c0 0.5806-2.4531 2-7 2zm-47.707-9.293a0.9994 0.9994 0 0 1 0-1.414l17.172-17.171a4.9994 4.9994 0 0 1 7.07 0l6.4652 6.4643 12.586-12.586h-3.5859a2.0023 2.0023 0 0 1-2-2v-2a2.0023 2.0023 0 0 1 2-2h11a3.0033 3.0033 0 0 1 3 3v11a2.0023 2.0023 0 0 1-2 2h-2a2.0023 2.0023 0 0 1-2-2v-3.5859l-13.465 13.464a4.9994 4.9994 0 0 1-7.07 0l-6.4652-6.4643-16.293 16.293a1 1 0 0 1-1.414-1.414l17-17a0.9994 0.9994 0 0 1 1.414 0l7.1719 7.1714a3.0726 3.0726 0 0 0 4.2422 0l15.172-15.171a1 1 0 0 1 1.707 0.707v6h2v-11a1.0009 1.0009 0 0 0-1-1h-11v2h6a1 1 0 0 1 0.707 1.707l-15 15a0.9994 0.9994 0 0 1-1.414 0l-7.1719-7.1714a3.0726 3.0726 0 0 0-4.2422 0l-17.172 17.171a0.9994 0.9994 0 0 1-1.414 0z"/></g></svg>
